:SAMPLES-PER-SECOND 30
:FULLY-SPECIFIED
:DEGREES
466
root  -79.5135 25.1533 -33.5321 -166.594 17.1107 171.482
RightUpLeg  -66.125 6.31071 14.5197
RightLeg  78.8669 -0.947987 -3.91547
RightFoot  -24.1115 -0.144319 -0.298188
RightToes  24.199 0.0175424 0.23475
Spine  19.3144 -6.39601 1.40223
Spine1  30.5644 -17.0704 3.89382
HEad  -0.887263 -17.4192 30.9962
LeftShoulder1  0 -2.42657e-020 -4.95415e-022
LeftArm  -19.4627 -45.1161 -82.2914
LeftForeArm  -139.142 -29.5974 -5.30935
LeftHand  9.61203 -21.3478 -48.4651
RightShoulder  0 2.42657e-020 1.07489e-018
RightArm  -54.4422 36.1038 97.7522
RightForeArm  43.8571 9.63618 1.70057
RightHand  -0.666141 21.4756 -3.14258
LeftUpLeg  -46.1407 0.569949 8.00119
LeftLeg  97.3362 -0.198928 3.21871
LeftFoot  -11.7877 -0.308466 -2.98745
LeftToes  -24.2171 1.18758e-006 1.19596e-007
467
root  -79.787 25.1136 -34.7683 -166.323 21.7713 170.815
RightUpLeg  -65.2936 6.54192 13.7366
RightLeg  81.1244 -0.100469 -0.872479
RightFoot  -26.4343 -0.454165 -1.55606
RightToes  24.9035 0.0178768 0.241542
Spine  20.248 -6.65855 1.35625
Spine1  31.4924 -17.4374 4.41524
HEad  -0.31165 -15.5146 29.2344
LeftShoulder1  0 -2.42657e-020 -4.95415e-022
LeftArm  -15.2467 -49.9746 -84.6722
LeftForeArm  -134.575 -19.6557 -3.21383
LeftHand  9.35911 -23.0059 -44.2041
RightShoulder  0 2.42657e-020 1.07489e-018
RightArm  -55.2745 38.2807 100.401
RightForeArm  40.2954 9.66046 1.70948
RightHand  -0.155546 21.1272 -0.464201
LeftUpLeg  -51.9768 -0.903132 9.30817
LeftLeg  94.1471 -0.0549747 7.57731
LeftFoot  -16.4279 -0.63089 -4.36848
LeftToes  -20.144 1.18758e-006 1.19596e-007
468
root  -80.0458 25.2211 -35.9895 -166.101 25.9214 169.803
RightUpLeg  -64.6512 6.31407 12.2231
RightLeg  83.0121 0.503451 2.15276
RightFoot  -27.7842 -0.805532 -2.87863
RightToes  24.2623 0.0182051 0.235361
Spine  20.4201 -6.71547 1.62196
Spine1  31.4563 -16.8815 4.86803
HEad  -0.449804 -14.0348 27.4661
LeftShoulder1  0 -2.42657e-020 -4.95415e-022
LeftArm  -7.78461 -53.0714 -89.3106
LeftForeArm  -120.589 -11.725 -1.74605
LeftHand  6.96848 -22.1703 -34.9068
RightShoulder  0 2.42657e-020 1.07489e-018
RightArm  -60.1943 39.5489 100.078
RightForeArm  37.3795 8.88391 1.57266
RightHand  0.0137532 20.6121 0.445779
LeftUpLeg  -57.4161 -2.54041 10.1888
LeftLeg  90.2419 0.541449 8.82151
LeftFoot  -18.7773 -0.802403 -4.85008
LeftToes  -17.779 1.18758e-006 1.19596e-007
469
root  -80.2322 25.4835 -37.2906 -166.539 29.847 168.654
RightUpLeg  -62.7683 6.04409 10.4268
RightLeg  83.7229 0.84662 4.24948
RightFoot  -29.4127 -1.09037 -3.77521
RightToes  23.9234 0.0185055 0.23209
Spine  20.403 -6.55828 2.24874
Spine1  31.2265 -15.7619 5.78539
HEad  -0.980589 -13.0208 24.8696
LeftShoulder1  0 -2.42657e-020 -4.95415e-022
LeftArm  -3.78023 -52.6557 -94.6173
LeftForeArm  -116.323 -7.4501 -0.988224
LeftHand  7.46229 -24.888 -33.3055
RightShoulder  0 2.42657e-020 1.07489e-018
RightArm  -65.1794 40.3524 96.6432
RightForeArm  33.4552 8.14912 1.44429
RightHand  -0.153559 19.6593 -0.516411
LeftUpLeg  -61.9572 -4.06025 10.262
LeftLeg  86.5927 1.10672 8.77335
LeftFoot  -19.6464 -0.814848 -4.70355
LeftToes  -12.4351 1.18758e-006 1.19596e-007
470
root  -80.2273 25.9067 -38.6314 -167.197 33.7977 167.6
RightUpLeg  -59.7287 6.59995 8.55961
RightLeg  82.9068 1.07255 5.11
RightFoot  -31.1902 -1.25309 -4.10999
RightToes  22.949 0.0187546 0.222667
Spine  20.2082 -6.22324 2.67929
Spine1  30.9558 -14.2418 6.48746
HEad  -1.27211 -12.1466 22.5978
LeftShoulder1  0 -2.42657e-020 -4.95415e-022
LeftArm  -5.68749 -49.0248 -96.2336
LeftForeArm  -119.629 -9.90897 -1.41984
LeftHand  8.09647 -23.8193 -37.4791
RightShoulder  0 2.42657e-020 1.07489e-018
RightArm  -70.8901 40.5004 91.5717
RightForeArm  30.4971 7.47788 1.32632
RightHand  -0.160702 19.0645 -0.587174
LeftUpLeg  -65.936 -5.11882 9.49723
LeftLeg  82.4492 1.33694 6.66618
LeftFoot  -18.4093 -0.579033 -3.57211
LeftToes  -14.6807 1.18758e-006 1.19596e-007
471
root  -79.9895 26.4751 -39.9309 -168.369 37.0368 166.138
RightUpLeg  -56.0451 8.24941 6.15072
RightLeg  81.1349 1.19618 4.93979
RightFoot  -32.0948 -1.23077 -3.89956
RightToes  20.703 0.0189292 0.200862
Spine  19.6592 -5.99795 2.74702
Spine1  30.4621 -12.8522 6.46355
HEad  -1.00902 -11.1894 20.7099
LeftShoulder1  0 -2.42657e-020 -4.95415e-022
LeftArm  -3.1396 -43.9225 -93.6549
LeftForeArm  -128.858 -15.8055 -2.4839
LeftHand  8.41353 -22.153 -41.5661
RightShoulder  0 2.42657e-020 1.07489e-018
RightArm  -77.302 39.2983 86.402
RightForeArm  27.4384 7.25798 1.28867
RightHand  0.131592 20.0414 1.11507
LeftUpLeg  -69.3347 -5.49352 7.3036
LeftLeg  76.7296 0.844982 2.74715
LeftFoot  -14.8105 -0.235015 -1.80808
LeftToes  -20.1798 1.18758e-006 1.19596e-007
472
root  -79.4884 27.1804 -41.2124 -169.738 39.511 164.726
RightUpLeg  -51.5986 10.6293 4.06102
RightLeg  78.3153 1.0767 3.58991
RightFoot  -32.1642 -0.99147 -3.06064
RightToes  17.7605 0.0190068 0.172165
Spine  18.7353 -5.86516 2.72644
Spine1  29.5969 -11.6306 5.94112
HEad  0.300208 -10.481 19.22
LeftShoulder1  0 -2.42657e-020 -4.95415e-022
LeftArm  -3.30994 -38.5449 -89.8363
LeftForeArm  -136.856 -21.3029 -3.53725
LeftHand  9.37602 -21.5602 -46.9854
RightShoulder  0 2.42657e-020 1.07489e-018
RightArm  -78.6698 36.1502 82.4159
RightForeArm  24.524 9.19248 1.63632
RightHand  0.675755 21.7029 3.89529
LeftUpLeg  -71.3222 -5.22876 3.74064
LeftLeg  68.6189 0.0823186 0.161138
LeftFoot  -13.0837 -0.0779996 -0.680177
LeftToes  -24.3009 1.18758e-006 1.19596e-007
473
root  -78.7747 27.9633 -42.5144 -171.042 41.5022 163.643
RightUpLeg  -46.0586 12.3371 2.85452
RightLeg  73.9509 0.866485 2.1888
RightFoot  -32.1558 -0.747454 -2.21547
RightToes  16.5115 0.0189656 0.159956
Spine  17.3622 -5.77654 2.52637
Spine1  28.1125 -10.9379 5.49947
HEad  1.90367 -10.1346 18.3302
LeftShoulder1  0 -2.42657e-020 -4.95415e-022
LeftArm  -6.37227 -33.1455 -86.7539
LeftForeArm  -140.955 -24.9451 -4.28173
LeftHand  9.98016 -21.605 -49.5619
RightShoulder  0 2.42657e-020 1.07489e-018
RightArm  -81.5075 31.7015 79.1613
RightForeArm  29.1618 11.6092 2.07347
RightHand  0.904877 23.5968 4.70128
LeftUpLeg  -71.0611 -4.01673 -1.2591
LeftLeg  57.6911 -0.431813 -0.604206
LeftFoot  -10.6572 -0.0106267 -0.113943
LeftToes  -26.3038 1.18758e-006 1.19596e-007
474
root  -77.7699 28.72 -43.8151 -171.612 43.791 163.819
RightUpLeg  -39.5243 13.9613 3.12643
RightLeg  68.1932 0.712027 1.34351
RightFoot  -31.4278 -0.576028 -1.66967
RightToes  15.4979 0.0187819 0.150042
Spine  15.5767 -5.47734 2.34628
Spine1  25.8496 -10.2349 5.34407
HEad  5.02471 -10.2806 16.8811
LeftShoulder1  0 -2.42657e-020 -4.95415e-022
LeftArm  -10.6418 -26.3773 -84.2166
LeftForeArm  -144.351 -27.8528 -4.90887
LeftHand  10.0882 -21.8548 -49.5203
RightShoulder  0 2.42657e-020 1.07489e-018
RightArm  -82.107 24.6785 75.8603
RightForeArm  20.5703 13.9939 2.51687
RightHand  2.54312 24.7496 11.9266
LeftUpLeg  -68.937 -0.558417 -7.26715
LeftLeg  45.4854 -2.10251 -1.88541
LeftFoot  -8.81939 0.0370042 0.479839
LeftToes  -29.5697 1.18758e-006 1.19596e-007
475
root  -76.5064 29.3962 -45.1471 -171.847 46.5751 165.007
RightUpLeg  -32.2387 13.8996 4.61221
RightLeg  62.0127 0.984262 1.49515
RightFoot  -29.5066 -0.523875 -1.61166
RightToes  14.5962 0.018433 0.141221
Spine  13.9406 -4.8424 2.18367
Spine1  23.8725 -8.88248 4.85363
HEad  8.09963 -9.81198 14.6941
LeftShoulder1  0 -2.42657e-020 -4.95415e-022
LeftArm  -14.6971 -19.3752 -82.2205
LeftForeArm  -147.322 -29.9158 -5.37458
LeftHand  10.1185 -21.8323 -49.6969
RightShoulder  0 2.42657e-020 1.07489e-018
RightArm  -77.8547 17.4537 73.7022
RightForeArm  15.934 18.0897 3.29766
RightHand  3.71989 24.6165 17.3052
LeftUpLeg  -65.5829 4.76119 -13.5166
LeftLeg  34.8135 -5.26179 -3.17481
LeftFoot  -9.63383 0.107373 1.2741
LeftToes  -34.616 1.18758e-006 1.19596e-007
476
root  -75.1586 29.9917 -46.4802 -171.561 49.8496 166.145
RightUpLeg  -25.8743 12.467 5.45631
RightLeg  56.1698 2.41756 3.07655
RightFoot  -26.1413 -0.604857 -2.22735
RightToes  11.3188 0.0174387 0.109176
Spine  12.0474 -4.04768 1.69384
Spine1  21.471 -7.1811 3.24887
HEad  11.7561 -8.09008 12.3945
LeftShoulder1  0 -2.42657e-020 -4.95415e-022
LeftArm  -18.0574 -11.7408 -79.7806
LeftForeArm  -150.938 -31.6417 -5.77922
LeftHand  10.5232 -22.1614 -50.7519
RightShoulder  0 2.42657e-020 1.07489e-018
RightArm  -70.4571 9.99807 72.9054
RightForeArm  10.7638 23.0523 4.29545
RightHand  4.70949 24.1079 22.1754
LeftUpLeg  -61.4434 7.33159 -15.7784
LeftLeg  26.7198 -5.80637 -2.46669
LeftFoot  -8.77948 0.0927811 1.20857
LeftToes  -30.0519 1.18758e-006 1.19596e-007
477
root  -73.6081 30.4201 -47.7561 -171.739 54.3252 167.13
RightUpLeg  -20.053 11.7047 5.66433
RightLeg  51.979 4.83897 5.35695
RightFoot  -20.9522 -0.597946 -2.85547
RightToes  4.14581 0.00888889 0.0395664
Spine  10.1494 -3.1791 0.806638
Spine1  18.8585 -5.47533 1.06067
HEad  16.5532 -5.44705 10.5997
LeftShoulder1  0 -2.42657e-020 -4.95415e-022
LeftArm  -23.1626 -2.82208 -77.5538
LeftForeArm  -152.562 -33.2079 -6.16111
LeftHand  10.8477 -23.115 -50.193
RightShoulder  0 2.42657e-020 1.07489e-018
RightArm  -62.2858 2.15462 72.2104
RightForeArm  6.4235 28.5949 5.50435
RightHand  5.72635 22.2185 28.957
LeftUpLeg  -55.6497 7.09285 -12.9909
LeftLeg  22.4529 -8.52048 -2.88536
LeftFoot  -5.51376 0.048324 1.0035
LeftToes  -30.8148 1.18758e-006 1.19596e-007
478
root  -72.1551 30.7715 -48.9675 -172.912 57.9751 166.732
RightUpLeg  -16.2975 8.27084 3.9617
RightLeg  50.5028 8.75174 9.16789
RightFoot  -13.353 -0.396667 -3.01029
RightToes  -17.9347 -0.0702472 -0.160012
Spine  8.51247 -3.1756 -0.398077
Spine1  16.4622 -5.73083 -1.4299
HEad  19.9808 -1.94752 10.0578
LeftShoulder1  0 -2.42657e-020 -4.95415e-022
LeftArm  -28.4875 6.25369 -74.9295
LeftForeArm  -154.735 -34.7447 -6.54957
LeftHand  10.9068 -24.2475 -48.3042
RightShoulder  0 2.42657e-020 1.07489e-018
RightArm  -51.3064 -5.63259 71.5501
RightForeArm  0.183912 38.1458 7.94496
RightHand  5.98273 21.0501 31.798
LeftUpLeg  -51.1684 0.561922 -5.68227
LeftLeg  20.5837 -8.86423 -2.68321
LeftFoot  5.26496 0.0371612 -0.808239
LeftToes  -27.5467 1.18758e-006 1.19596e-007
479
root  -70.6017 31.0056 -49.9465 -175.125 60.3416 166.161
RightUpLeg  -13.614 5.22129 2.37891
RightLeg  52.1912 11.5491 12.7128
RightFoot  -4.7298 -0.0753625 -1.44732
RightToes  -46.2253 -0.270024 -0.34752
Spine  8.53238 -3.17095 -1.36363
Spine1  16.7254 -5.60114 -3.59066
HEad  19.2979 -0.167364 11.6283
LeftShoulder1  0 -2.42657e-020 -4.95415e-022
LeftArm  -31.398 11.718 -72.1124
LeftForeArm  -156.438 -37.1707 -7.19455
LeftHand  10.9654 -24.9136 -47.3515
RightShoulder  0 2.42657e-020 1.07489e-018
RightArm  -46.658 -13.6567 71.8767
RightForeArm  -1.04828 55.5282 14.8901
RightHand  5.93181 20.0355 33.0731
LeftUpLeg  -49.4273 -2.33672 -2.10963
LeftLeg  25.3836 -8.49585 -3.36801
LeftFoot  14.9141 0.305007 -2.32994
LeftToes  -36.4392 1.18758e-006 1.19596e-007
480
root  -69.2176 31.2485 -50.7769 -175.453 63.8387 166.811
RightUpLeg  -14.3049 4.56922 1.03841
RightLeg  56.7287 13.1112 16.729
RightFoot  3.47261 -0.0302183 1.37411
RightToes  -55.0839 -0.348744 -0.38358
Spine  8.4677 -2.49888 -1.7283
Spine1  16.6455 -4.21987 -4.33052
HEad  19.122 0.458046 11.2778
LeftShoulder1  0 -2.42657e-020 -4.95415e-022
LeftArm  -33.1144 14.0594 -71.1087
LeftForeArm  -155.087 -35.6668 -6.79005
LeftHand  10.9974 -25.048 -47.2416
RightShoulder  0 2.42657e-020 1.07489e-018
RightArm  -44.4065 -20.0809 70.3157
RightForeArm  7.57986 70.0491 29.1726
RightHand  5.88934 20.007 32.8957
LeftUpLeg  -48.2005 -1.3953 -0.748137
LeftLeg  30.1767 -6.63358 -3.29934
LeftFoot  13.0608 0.189121 -1.65199
LeftToes  -30.7108 1.18758e-006 1.19596e-007
